<svg viewBox="0 0 200 200" xmlns="http://www.w3.org/2000/svg">
  <defs>
    <linearGradient id="grad1" x1="0%" y1="0%" x2="100%" y2="100%">
      <stop offset="0%" style="stop-color:#c084f5;stop-opacity:1" />
      <stop offset="100%" style="stop-color:#a855f7;stop-opacity:1" />
    </linearGradient>
    <clipPath id="circleClip">
      <circle cx="100" cy="100" r="95"/>
    </clipPath>
  </defs>
  <circle cx="100" cy="100" r="95" fill="url(#grad1)" opacity="0.3"/>
  <g clip-path="url(#circleClip)">
    <!-- Female developer - simplified illustration -->
    <ellipse cx="100" cy="85" rx="35" ry="40" fill="#f0e6d8"/>
    <path d="M 65 120 Q 65 95 100 95 Q 135 95 135 120 L 135 200 L 65 200 Z" fill="#e8d5c4"/>
    <path d="M 75 90 Q 85 70 100 68 Q 115 70 125 90" fill="#4a3728"/>
    <circle cx="92" cy="82" r="4" fill="#2d1f14"/>
    <circle cx="108" cy="82" r="4" fill="#2d1f14"/>
    <path d="M 85 95 Q 100 100 115 95" stroke="#4a3728" stroke-width="2" fill="none" stroke-linecap="round"/>
    <rect x="55" y="130" width="90" height="50" rx="5" fill="#374151"/>
    <rect x="60" y="135" width="80" height="35" rx="2" fill="#1f2937"/>
    <line x1="70" y1="145" x2="130" y2="145" stroke="#4b5563" stroke-width="1"/>
    <line x1="70" y1="155" x2="110" y2="155" stroke="#4b5563" stroke-width="1"/>
    <line x1="70" y1="165" x2="90" y2="165" stroke="#4b5563" stroke-width="1"/>
    <rect x="95" y="75" width="12" height="8" fill="#6b7280" transform="rotate(-10 101 79)"/>
    <path d="M 100 60 Q 100 50 110 52" stroke="#4a3728" stroke-width="3" fill="none" stroke-linecap="round"/>
  </g>
</svg>
