<svg viewBox="0 0 400 400" xmlns="http://www.w3.org/2000/svg">
  <defs>
    <linearGradient id="bgGrad" x1="0%" y1="0%" x2="100%" y2="100%">
      <stop offset="0%" style="stop-color:#7c3aed;stop-opacity:0.2" />
      <stop offset="100%" style="stop-color:#a855f7;stop-opacity:0.1" />
    </linearGradient>
  </defs>
  <!-- Female developer at desk with laptop -->
  <rect width="400" height="400" fill="url(#bgGrad)"/>
  <!-- Desk -->
  <rect x="80" y="280" width="240" height="12" rx="2" fill="#374151"/>
  <rect x="100" y="250" width="200" height="100" rx="8" fill="#1f2937"/>
  <rect x="110" y="260" width="180" height="70" rx="4" fill="#0f172a"/>
  <line x1="120" y1="275" x2="270" y2="275" stroke="#4b5563" stroke-width="1"/>
  <line x1="120" y1="290" x2="250" y2="290" stroke="#4b5563" stroke-width="1"/>
  <line x1="120" y1="305" x2="200" y2="305" stroke="#4b5563" stroke-width="1"/>
  <!-- Person - female developer -->
  <ellipse cx="200" cy="140" rx="45" ry="50" fill="#f0e6d8"/>
  <path d="M 155 195 Q 155 160 200 160 Q 245 160 245 195 L 245 320 L 155 320 Z" fill="#e8d5c4"/>
  <!-- Hair -->
  <path d="M 165 95 Q 150 100 145 120 Q 140 145 150 165 L 155 190 L 245 190 L 250 165 Q 260 145 255 120 Q 250 100 235 95" fill="#4a3728"/>
  <!-- Glasses -->
  <circle cx="185" cy="138" r="18" fill="none" stroke="#374151" stroke-width="2"/>
  <circle cx="215" cy="138" r="18" fill="none" stroke="#374151" stroke-width="2"/>
  <line x1="203" y1="138" x2="197" y2="138" stroke="#374151" stroke-width="2"/>
  <line x1="160" y1="125" x2="175" y2="130" stroke="#374151" stroke-width="1"/>
  <line x1="240" y1="125" x2="225" y2="130" stroke="#374151" stroke-width="1"/>
  <!-- Eyes -->
  <circle cx="185" cy="138" r="4" fill="#2d1f14"/>
  <circle cx="215" cy="138" r="4" fill="#2d1f14"/>
  <!-- Smile -->
  <path d="M 180 155 Q 200 165 220 155" stroke="#4a3728" stroke-width="2" fill="none" stroke-linecap="round"/>
  <!-- Arms on keyboard -->
  <path d="M 155 210 L 170 260 L 110 268 L 95 218 Z" fill="#e8d5c4"/>
  <path d="M 245 210 L 230 260 L 290 268 L 305 218 Z" fill="#e8d5c4"/>
  <!-- Code brackets accent -->
  <text x="320" y="150" fill="#c084f5" font-size="24" font-family="monospace" opacity="0.8">{ }</text>
</svg>
